<svg width="218" height="336" viewBox="0 0 218 336" fill="none" xmlns="http://www.w3.org/2000/svg">
<path d="M3.99997 75.5C15.3478 95.5598 66.3167 125.958 92.5 125.5M92.5 125.5L210 57M92.5 125.5V331M11 118C36.3013 142.939 52.0393 150.956 82 158M11 143C36.6609 166.508 52.2485 174.98 82 182.5" stroke="black" stroke-width="3"/>
<path d="M123 3.5L3.5 75L3 280.5C30.8024 316.487 52.3171 325.369 95 333L133.5 310.542L215 263L212.5 55.5L123 3.5Z" stroke="black" stroke-width="5"/>
<path d="M32.5 225C32.5 230.991 28.0621 235.5 23 235.5C17.9379 235.5 13.5 230.991 13.5 225C13.5 219.009 17.9379 214.5 23 214.5C28.0621 214.5 32.5 219.009 32.5 225Z" stroke="black" stroke-width="5"/>
<path d="M32.5 257C32.5 262.991 28.0621 267.5 23 267.5C17.9379 267.5 13.5 262.991 13.5 257C13.5 251.009 17.9379 246.5 23 246.5C28.0621 246.5 32.5 251.009 32.5 257Z" stroke="black" stroke-width="5"/>
</svg>
