<svg width="195" height="195" viewBox="0 0 195 195" fill="none" xmlns="http://www.w3.org/2000/svg">
<circle cx="97.5" cy="97.5" r="97.5" fill="black"/>
<path d="M53.875 56.625C59.7083 56.7917 64.5417 56.9167 68.375 57C72.2917 57 75.4583 57 77.875 57H84.5H121.75C121.917 58.6667 122.042 60.2917 122.125 61.875C122.292 63.375 122.375 64.7083 122.375 65.875C122.375 67.2917 122.333 68.5833 122.25 69.75C122.167 70.9167 122.042 72.1667 121.875 73.5C121.708 74.6667 121.542 75.9167 121.375 77.25C121.208 78.5833 120.917 79.9583 120.5 81.375C119.333 76.875 117.75 73.4583 115.75 71.125C113.833 68.7917 111.875 67.0833 109.875 66C107.542 64.75 105.083 64.0833 102.5 64C99.0833 64.1667 96.4167 64.4583 94.5 64.875C92.5833 65.2917 91.0833 65.875 90 66.625C88.9167 67.375 88.0833 68.25 87.5 69.25C87 70.1667 86.4583 71.2083 85.875 72.375C85.375 73.375 84.9167 74.9167 84.5 77C84.0833 78.75 83.6667 81.125 83.25 84.125C82.9167 87.125 82.5417 91 82.125 95.75C84.375 95.0833 86.1667 94.4583 87.5 93.875C88.9167 93.2917 90.0417 92.7917 90.875 92.375C91.7917 91.875 92.4583 91.4167 92.875 91C93.2083 90.5 93.7083 89.5833 94.375 88.25C94.875 87.0833 95.5417 85.5 96.375 83.5C97.2917 81.5 98.375 78.75 99.625 75.25C99.7917 79.0833 99.875 82.2917 99.875 84.875C99.875 87.375 99.9167 89.4167 100 91C100 92.8333 100.042 94.2917 100.125 95.375V100.125C100.125 101.875 100.125 104.25 100.125 107.25C100.208 110.167 100.333 113.875 100.5 118.375C99.5 115.292 98.5833 112.875 97.75 111.125C97 109.292 96.3333 107.917 95.75 107C95.0833 105.917 94.5 105.167 94 104.75C93.4167 104.583 92.625 104.417 91.625 104.25C90.7083 104.167 89.5417 104.125 88.125 104.125C86.7917 104.125 85.0833 104.333 83 104.75C82.75 109.333 82.7083 113.042 82.875 115.875C83.125 118.625 83.4583 120.75 83.875 122.25C84.2917 124 84.7917 125.25 85.375 126C86.125 126.75 87.625 127.375 89.875 127.875C92.125 128.292 94.6667 128.458 97.5 128.375C100.417 128.208 103.375 127.708 106.375 126.875C109.375 126.042 112.042 124.667 114.375 122.75C116.125 121.167 118 119.167 120 116.75C121.667 114.667 123.5 112.042 125.5 108.875C127.583 105.708 129.625 101.875 131.625 97.375C131.292 101.125 131.042 104.25 130.875 106.75C130.792 109.167 130.667 111.125 130.5 112.625C130.333 114.375 130.208 115.708 130.125 116.625C130.125 117.625 130 119.042 129.75 120.875C129.583 122.458 129.292 124.625 128.875 127.375C128.542 130.042 128.083 133.458 127.5 137.625C123.583 137.708 119.875 137.792 116.375 137.875C112.875 137.875 109.792 137.917 107.125 138C103.958 138.083 101.042 138.167 98.375 138.25C95.625 138.25 92.5833 138.375 89.25 138.625C86.3333 138.792 82.875 139.042 78.875 139.375C74.9583 139.708 70.625 140.167 65.875 140.75C66.2917 135.083 66.5833 129.75 66.75 124.75C67 119.667 67.1667 115.208 67.25 111.375C67.3333 106.875 67.3333 102.708 67.25 98.875C67.6667 89.2917 67.5 81.5417 66.75 75.625C66 69.7083 65.125 65.9167 64.125 64.25C63.625 63.6667 62.9167 62.9583 62 62.125C61.25 61.4583 60.2083 60.6667 58.875 59.75C57.5417 58.8333 55.875 57.7917 53.875 56.625Z" fill="white"/>
</svg>